<svg version="1.2" xmlns="http://www.w3.org/2000/svg" viewBox="0 0 24 24" width="24" height="24">
	<title>iconmonstr-linkedin-4-svg</title>
	<style>
		.s0 { fill: #79b2f2 } 
	</style>
	<g id="Layer 1">
		<path id="Layer" class="s0" d="m12 0c-6.6 0-12 5.4-12 12 0 6.6 5.4 12 12 12 6.6 0 12-5.4 12-12 0-6.6-5.4-12-12-12zm-2 16h-2v-6h2zm-1-6.9c-0.6 0-1.1-0.5-1.1-1.1 0-0.6 0.5-1.1 1.1-1.1 0.6 0 1.1 0.5 1.1 1.1 0 0.6-0.5 1.1-1.1 1.1zm8 6.9h-2v-2.9c0-1.8-2-1.7-2 0v2.9h-2v-6h2v1.1c0.9-1.6 4-1.7 4 1.5z"/>
	</g>
</svg>