<svg width="172" height="72" viewBox="0 0 172 72" fill="none" xmlns="http://www.w3.org/2000/svg">
<path d="M17.856 27.84C20.928 27.84 23.584 28.496 25.824 29.808C28.064 31.12 29.792 32.992 31.008 35.424C32.224 37.856 32.832 40.768 32.832 44.16C32.832 47.552 32.224 50.464 31.008 52.896C29.792 55.328 28.064 57.2 25.824 58.512C23.584 59.824 20.928 60.48 17.856 60.48C14.816 60.48 12.176 59.824 9.936 58.512C7.696 57.2 5.968 55.328 4.752 52.896C3.536 50.464 2.928 47.552 2.928 44.16C2.928 40.768 3.536 37.856 4.752 35.424C5.968 32.992 7.696 31.12 9.936 29.808C12.176 28.496 14.816 27.84 17.856 27.84ZM17.856 32.304C15.872 32.304 14.16 32.768 12.72 33.696C11.312 34.624 10.224 35.968 9.456 37.728C8.688 39.488 8.304 41.632 8.304 44.16C8.304 46.656 8.688 48.8 9.456 50.592C10.224 52.352 11.312 53.696 12.72 54.624C14.16 55.552 15.872 56.016 17.856 56.016C19.872 56.016 21.584 55.552 22.992 54.624C24.432 53.696 25.536 52.352 26.304 50.592C27.072 48.8 27.456 46.656 27.456 44.16C27.456 41.632 27.072 39.488 26.304 37.728C25.536 35.968 24.432 34.624 22.992 33.696C21.584 32.768 19.872 32.304 17.856 32.304ZM44.7416 25.2V53.28C44.7416 54.464 44.9496 55.28 45.3656 55.728C45.7816 56.176 46.4696 56.4 47.4296 56.4C48.0056 56.4 48.4856 56.368 48.8696 56.304C49.2856 56.208 49.7976 56.048 50.4056 55.824L49.8296 59.664C49.2856 59.92 48.6616 60.112 47.9576 60.24C47.2536 60.4 46.5496 60.48 45.8456 60.48C43.7016 60.48 42.1176 59.936 41.0936 58.848C40.1016 57.728 39.6056 56.016 39.6056 53.712V25.2H44.7416ZM65.2628 60.48C62.8628 60.48 60.7508 59.984 58.9268 58.992C57.1028 58 55.6788 56.576 54.6548 54.72C53.6628 52.832 53.1668 50.592 53.1668 48C53.1668 45.408 53.6628 43.184 54.6548 41.328C55.6788 39.44 57.0868 38 58.8788 37.008C60.6708 36.016 62.7028 35.52 64.9748 35.52C67.3108 35.52 69.2948 36 70.9268 36.96C72.5588 37.92 73.8068 39.232 74.6708 40.896C75.5348 42.56 75.9668 44.448 75.9668 46.56C75.9668 47.136 75.9508 47.68 75.9188 48.192C75.8868 48.704 75.8388 49.152 75.7748 49.536H56.4788V45.6H73.5188L70.9748 46.368C70.9748 44.192 70.4308 42.528 69.3428 41.376C68.2548 40.192 66.7668 39.6 64.8788 39.6C63.5028 39.6 62.3028 39.92 61.2788 40.56C60.2548 41.2 59.4708 42.16 58.9268 43.44C58.3828 44.688 58.1108 46.224 58.1108 48.048C58.1108 49.84 58.3988 51.36 58.9748 52.608C59.5508 53.856 60.3668 54.8 61.4228 55.44C62.4788 56.08 63.7268 56.4 65.1668 56.4C66.7668 56.4 68.0628 56.096 69.0548 55.488C70.0468 54.88 70.8308 54.032 71.4068 52.944L75.4868 54.864C74.9108 56.016 74.1268 57.024 73.1348 57.888C72.1748 58.72 71.0228 59.36 69.6788 59.808C68.3348 60.256 66.8628 60.48 65.2628 60.48ZM105.109 36L94.4048 46.944L93.3008 47.712L85.7648 55.536L85.7168 49.68L99.0128 36H105.109ZM87.5888 25.2V60H82.4528V25.2H87.5888ZM95.0288 44.064L105.685 60H99.7328L91.1888 46.992L95.0288 44.064ZM119.135 60.48C116.735 60.48 114.543 60.016 112.559 59.088C110.575 58.16 109.007 56.848 107.855 55.152L111.407 52.08C112.111 53.392 113.119 54.448 114.431 55.248C115.775 56.016 117.375 56.4 119.231 56.4C120.703 56.4 121.871 56.144 122.735 55.632C123.599 55.12 124.031 54.4 124.031 53.472C124.031 52.864 123.823 52.336 123.407 51.888C123.023 51.408 122.271 51.04 121.151 50.784L116.111 49.728C113.551 49.216 111.727 48.4 110.639 47.28C109.551 46.128 109.007 44.672 109.007 42.912C109.007 41.6 109.391 40.384 110.159 39.264C110.927 38.144 112.047 37.248 113.519 36.576C115.023 35.872 116.815 35.52 118.895 35.52C121.295 35.52 123.343 35.952 125.039 36.816C126.735 37.648 128.031 38.848 128.927 40.416L125.375 43.392C124.767 42.112 123.871 41.168 122.687 40.56C121.503 39.92 120.271 39.6 118.991 39.6C117.967 39.6 117.087 39.728 116.351 39.984C115.615 40.24 115.055 40.592 114.671 41.04C114.287 41.488 114.095 42.016 114.095 42.624C114.095 43.264 114.335 43.824 114.815 44.304C115.295 44.784 116.159 45.152 117.407 45.408L122.879 46.56C125.183 47.008 126.799 47.776 127.727 48.864C128.687 49.92 129.167 51.216 129.167 52.752C129.167 54.288 128.767 55.648 127.967 56.832C127.167 57.984 126.015 58.88 124.511 59.52C123.007 60.16 121.215 60.48 119.135 60.48ZM138.014 31.968C136.894 31.968 136.03 31.696 135.422 31.152C134.846 30.576 134.558 29.776 134.558 28.752C134.558 27.728 134.846 26.944 135.422 26.4C136.03 25.856 136.894 25.584 138.014 25.584C139.102 25.584 139.934 25.856 140.51 26.4C141.118 26.944 141.422 27.728 141.422 28.752C141.422 29.776 141.118 30.576 140.51 31.152C139.934 31.696 139.102 31.968 138.014 31.968ZM140.558 36V60H135.422V36H140.558ZM151.185 31.968C150.065 31.968 149.201 31.696 148.593 31.152C148.017 30.576 147.729 29.776 147.729 28.752C147.729 27.728 148.017 26.944 148.593 26.4C149.201 25.856 150.065 25.584 151.185 25.584C152.273 25.584 153.105 25.856 153.681 26.4C154.289 26.944 154.593 27.728 154.593 28.752C154.593 29.776 154.289 30.576 153.681 31.152C153.105 31.696 152.273 31.968 151.185 31.968ZM153.729 36V60H148.593V36H153.729Z" fill="black"/>
<path d="M164.248 63.352C162.928 63.352 161.843 62.9707 160.992 62.208C160.171 61.416 159.76 60.448 159.76 59.304C159.76 58.1307 160.171 57.148 160.992 56.356C161.843 55.564 162.928 55.168 164.248 55.168C165.539 55.168 166.595 55.564 167.416 56.356C168.267 57.148 168.692 58.1307 168.692 59.304C168.692 60.448 168.267 61.416 167.416 62.208C166.595 62.9707 165.539 63.352 164.248 63.352Z" fill="#FEDE00"/>
<path d="M151.248 32.352C149.928 32.352 148.843 31.9707 147.992 31.208C147.171 30.416 146.76 29.448 146.76 28.304C146.76 27.1307 147.171 26.148 147.992 25.356C148.843 24.564 149.928 24.168 151.248 24.168C152.539 24.168 153.595 24.564 154.416 25.356C155.267 26.148 155.692 27.1307 155.692 28.304C155.692 29.448 155.267 30.416 154.416 31.208C153.595 31.9707 152.539 32.352 151.248 32.352Z" fill="#0075FF"/>
</svg>
