<svg version="1.2" xmlns="http://www.w3.org/2000/svg" viewBox="0 0 170 53" width="170" height="53">
	<title>my-logo-svg</title>
	<style>
		.s0 { fill: #ffffff } 
		.s1 { fill: #fede00 } 
	</style>
	<g id="Layer 1">
		<path id="Layer" class="s0" d="m17.9 8.8q4.6 0 7.9 2 3.4 2 5.2 5.6 1.8 3.7 1.8 8.8 0 5-1.8 8.7-1.8 3.6-5.2 5.6-3.3 2-7.9 2-4.6 0-8-2-3.3-2-5.1-5.6-1.9-3.7-1.9-8.7 0-5.1 1.9-8.8 1.8-3.6 5.1-5.6 3.4-2 8-2zm0 4.5q-3 0-5.2 1.4-2.1 1.4-3.2 4-1.2 2.7-1.2 6.5 0 3.7 1.2 6.4 1.1 2.6 3.2 4 2.2 1.4 5.2 1.4 3 0 5.1-1.4 2.2-1.4 3.3-4 1.2-2.7 1.2-6.4 0-3.8-1.2-6.5-1.1-2.6-3.3-4-2.1-1.4-5.1-1.4zm26.8-7.1v28.1q0 1.8 0.7 2.4 0.6 0.7 2 0.7 0.9 0 1.5-0.1 0.6-0.1 1.5-0.5l-0.6 3.9q-0.8 0.3-1.8 0.5-1.1 0.3-2.2 0.3-3.2 0-4.7-1.7-1.5-1.6-1.5-5.1v-28.5zm20.5 35.3q-3.6 0-6.3-1.5-2.7-1.5-4.3-4.3-1.5-2.8-1.5-6.7 0-3.9 1.5-6.7 1.6-2.8 4.2-4.3 2.7-1.5 6.1-1.5 3.5 0 6 1.5 2.4 1.4 3.7 3.9 1.3 2.5 1.3 5.7 0 0.8 0 1.6-0.1 0.8-0.2 1.3h-19.3v-3.9h17.1l-2.6 0.8q0-3.3-1.6-5-1.6-1.8-4.5-1.8-2 0-3.6 1-1.5 0.9-2.3 2.8-0.8 1.9-0.8 4.6 0 2.7 0.8 4.6 0.9 1.9 2.5 2.8 1.6 1 3.7 1 2.4 0 3.9-0.9 1.5-0.9 2.4-2.6l4.1 2q-0.9 1.7-2.4 3-1.4 1.2-3.5 1.9-2 0.7-4.4 0.7zm39.9-24.5l-10.7 10.9-1.1 0.8-7.6 7.8v-5.8l13.3-13.7zm-17.5-10.8v34.8h-5.2v-34.8zm7.5 18.9l10.6 15.9h-5.9l-8.6-13zm24.1 16.4q-3.6 0-6.5-1.4-3-1.4-4.8-3.9l3.6-3.1q1.1 2 3 3.2 2 1.1 4.8 1.1 2.2 0 3.5-0.7 1.3-0.8 1.3-2.2 0-0.9-0.6-1.6-0.6-0.7-2.3-1.1l-5-1q-3.8-0.8-5.5-2.5-1.6-1.7-1.6-4.4 0-1.9 1.2-3.6 1.1-1.7 3.3-2.7 2.3-1.1 5.4-1.1 3.6 0 6.1 1.3 2.6 1.3 3.9 3.6l-3.5 3q-0.9-1.9-2.7-2.8-1.8-1-3.7-1-1.6 0-2.7 0.4-1.1 0.4-1.6 1.1-0.6 0.6-0.6 1.6 0 0.9 0.7 1.6 0.7 0.8 2.6 1.1l5.5 1.2q3.4 0.7 4.8 2.3 1.5 1.6 1.5 3.9 0 2.3-1.2 4.1-1.2 1.7-3.5 2.6-2.3 1-5.4 1zm18.9-28.5q-1.7 0-2.6-0.8-0.9-0.9-0.9-2.4 0-1.6 0.9-2.4 0.9-0.8 2.6-0.8 1.6 0 2.5 0.8 0.9 0.8 0.9 2.4 0 1.5-0.9 2.4-0.9 0.8-2.5 0.8zm2.5 4v24h-5.1v-24zm10.6-4q-1.6 0-2.6-0.8-0.8-0.9-0.8-2.4 0-1.6 0.8-2.4 1-0.8 2.6-0.8 1.7 0 2.5 0.8 0.9 0.8 0.9 2.4 0 1.5-0.9 2.4-0.8 0.8-2.5 0.8zm2.6 4v24h-5.2v-24z"/>
		<path id="Layer" class="s1" d="m151.5 15c-2.5 0-4.5-2-4.5-4.5 0-2.5 2-4.5 4.5-4.5 2.5 0 4.5 2 4.5 4.5 0 2.5-2 4.5-4.5 4.5z"/>
		<path id="Layer" class="s1" d="m165 46c-2.8 0-5-2.2-5-5 0-2.8 2.2-5 5-5 2.8 0 5 2.2 5 5 0 2.8-2.2 5-5 5z"/>
	</g>
</svg>