<svg width="170" height="53" viewBox="0 0 170 53" fill="none" xmlns="http://www.w3.org/2000/svg">
<path d="M17.856 8.84C20.928 8.84 23.584 9.496 25.824 10.808C28.064 12.12 29.792 13.992 31.008 16.424C32.224 18.856 32.832 21.768 32.832 25.16C32.832 28.552 32.224 31.464 31.008 33.896C29.792 36.328 28.064 38.2 25.824 39.512C23.584 40.824 20.928 41.48 17.856 41.48C14.816 41.48 12.176 40.824 9.936 39.512C7.696 38.2 5.968 36.328 4.752 33.896C3.536 31.464 2.928 28.552 2.928 25.16C2.928 21.768 3.536 18.856 4.752 16.424C5.968 13.992 7.696 12.12 9.936 10.808C12.176 9.496 14.816 8.84 17.856 8.84ZM17.856 13.304C15.872 13.304 14.16 13.768 12.72 14.696C11.312 15.624 10.224 16.968 9.456 18.728C8.688 20.488 8.304 22.632 8.304 25.16C8.304 27.656 8.688 29.8 9.456 31.592C10.224 33.352 11.312 34.696 12.72 35.624C14.16 36.552 15.872 37.016 17.856 37.016C19.872 37.016 21.584 36.552 22.992 35.624C24.432 34.696 25.536 33.352 26.304 31.592C27.072 29.8 27.456 27.656 27.456 25.16C27.456 22.632 27.072 20.488 26.304 18.728C25.536 16.968 24.432 15.624 22.992 14.696C21.584 13.768 19.872 13.304 17.856 13.304ZM44.7416 6.2V34.28C44.7416 35.464 44.9496 36.28 45.3656 36.728C45.7816 37.176 46.4696 37.4 47.4296 37.4C48.0056 37.4 48.4856 37.368 48.8696 37.304C49.2856 37.208 49.7976 37.048 50.4056 36.824L49.8296 40.664C49.2856 40.92 48.6616 41.112 47.9576 41.24C47.2536 41.4 46.5496 41.48 45.8456 41.48C43.7016 41.48 42.1176 40.936 41.0936 39.848C40.1016 38.728 39.6056 37.016 39.6056 34.712V6.2H44.7416ZM65.2628 41.48C62.8628 41.48 60.7508 40.984 58.9268 39.992C57.1028 39 55.6788 37.576 54.6548 35.72C53.6628 33.832 53.1668 31.592 53.1668 29C53.1668 26.408 53.6628 24.184 54.6548 22.328C55.6788 20.44 57.0868 19 58.8788 18.008C60.6708 17.016 62.7028 16.52 64.9748 16.52C67.3108 16.52 69.2948 17 70.9268 17.96C72.5588 18.92 73.8068 20.232 74.6708 21.896C75.5348 23.56 75.9668 25.448 75.9668 27.56C75.9668 28.136 75.9508 28.68 75.9188 29.192C75.8868 29.704 75.8388 30.152 75.7748 30.536H56.4788V26.6H73.5188L70.9748 27.368C70.9748 25.192 70.4308 23.528 69.3428 22.376C68.2548 21.192 66.7668 20.6 64.8788 20.6C63.5028 20.6 62.3028 20.92 61.2788 21.56C60.2548 22.2 59.4708 23.16 58.9268 24.44C58.3828 25.688 58.1108 27.224 58.1108 29.048C58.1108 30.84 58.3988 32.36 58.9748 33.608C59.5508 34.856 60.3668 35.8 61.4228 36.44C62.4788 37.08 63.7268 37.4 65.1668 37.4C66.7668 37.4 68.0628 37.096 69.0548 36.488C70.0468 35.88 70.8308 35.032 71.4068 33.944L75.4868 35.864C74.9108 37.016 74.1268 38.024 73.1348 38.888C72.1748 39.72 71.0228 40.36 69.6788 40.808C68.3348 41.256 66.8628 41.48 65.2628 41.48ZM105.109 17L94.4048 27.944L93.3008 28.712L85.7648 36.536L85.7168 30.68L99.0128 17H105.109ZM87.5888 6.2V41H82.4528V6.2H87.5888ZM95.0288 25.064L105.685 41H99.7328L91.1888 27.992L95.0288 25.064ZM119.135 41.48C116.735 41.48 114.543 41.016 112.559 40.088C110.575 39.16 109.007 37.848 107.855 36.152L111.407 33.08C112.111 34.392 113.119 35.448 114.431 36.248C115.775 37.016 117.375 37.4 119.231 37.4C120.703 37.4 121.871 37.144 122.735 36.632C123.599 36.12 124.031 35.4 124.031 34.472C124.031 33.864 123.823 33.336 123.407 32.888C123.023 32.408 122.271 32.04 121.151 31.784L116.111 30.728C113.551 30.216 111.727 29.4 110.639 28.28C109.551 27.128 109.007 25.672 109.007 23.912C109.007 22.6 109.391 21.384 110.159 20.264C110.927 19.144 112.047 18.248 113.519 17.576C115.023 16.872 116.815 16.52 118.895 16.52C121.295 16.52 123.343 16.952 125.039 17.816C126.735 18.648 128.031 19.848 128.927 21.416L125.375 24.392C124.767 23.112 123.871 22.168 122.687 21.56C121.503 20.92 120.271 20.6 118.991 20.6C117.967 20.6 117.087 20.728 116.351 20.984C115.615 21.24 115.055 21.592 114.671 22.04C114.287 22.488 114.095 23.016 114.095 23.624C114.095 24.264 114.335 24.824 114.815 25.304C115.295 25.784 116.159 26.152 117.407 26.408L122.879 27.56C125.183 28.008 126.799 28.776 127.727 29.864C128.687 30.92 129.167 32.216 129.167 33.752C129.167 35.288 128.767 36.648 127.967 37.832C127.167 38.984 126.015 39.88 124.511 40.52C123.007 41.16 121.215 41.48 119.135 41.48ZM138.014 12.968C136.894 12.968 136.03 12.696 135.422 12.152C134.846 11.576 134.558 10.776 134.558 9.752C134.558 8.728 134.846 7.944 135.422 7.4C136.03 6.856 136.894 6.584 138.014 6.584C139.102 6.584 139.934 6.856 140.51 7.4C141.118 7.944 141.422 8.728 141.422 9.752C141.422 10.776 141.118 11.576 140.51 12.152C139.934 12.696 139.102 12.968 138.014 12.968ZM140.558 17V41H135.422V17H140.558ZM151.185 12.968C150.065 12.968 149.201 12.696 148.593 12.152C148.017 11.576 147.729 10.776 147.729 9.752C147.729 8.728 148.017 7.944 148.593 7.4C149.201 6.856 150.065 6.584 151.185 6.584C152.273 6.584 153.105 6.856 153.681 7.4C154.289 7.944 154.593 8.728 154.593 9.752C154.593 10.776 154.289 11.576 153.681 12.152C153.105 12.696 152.273 12.968 151.185 12.968ZM153.729 17V41H148.593V17H153.729Z" fill="black"/>
<circle cx="151.5" cy="10.5" r="4.5" fill="#0075FF"/>
<circle cx="165" cy="41" r="5" fill="#FEDE00"/>
</svg>
