<svg version="1.2" xmlns="http://www.w3.org/2000/svg" viewBox="0 0 24 24" width="24" height="24">
	<title>telegram-svg</title>
	<style>
		.s0 { fill: #79b2f2 } 
	</style>
	<g id="Layer 1">
		<path id="telegram-4" fill-rule="evenodd" class="s0" d="m12 0c-6.6 0-12 5.4-12 12 0 6.6 5.4 12 12 12 6.6 0 12-5.4 12-12 0-6.6-5.4-12-12-12zm3.2 17.9c0.2 0.1 0.5 0.1 0.7 0.1 0.2-0.1 0.3-0.3 0.4-0.5 0.5-2.4 1.7-8.4 2.2-10.6 0-0.2 0-0.3-0.2-0.5-0.1-0.1-0.3-0.1-0.4 0-2.5 0.9-10 3.7-13.1 4.8-0.2 0.1-0.3 0.3-0.3 0.5 0 0.2 0.1 0.4 0.3 0.4 1.4 0.5 3.2 1 3.2 1 0 0 0.9 2.6 1.3 3.9q0.1 0.2 0.4 0.3c0.1 0.1 0.3 0 0.5-0.1 0.7-0.7 1.8-1.7 1.8-1.7 0 0 2 1.5 3.2 2.4zm-6.4-5.1l1 3.2 0.2-2c0 0 3.8-3.4 5.9-5.4 0.1 0 0.1-0.1 0.1-0.2-0.1-0.1-0.2-0.1-0.3 0-2.5 1.6-6.9 4.4-6.9 4.4z"/>
	</g>
</svg>